<svg width="2531" height="220" viewBox="0 0 2531 220" fill="none" xmlns="http://www.w3.org/2000/svg">
<path d="M130.676 146.248H174.475C173.596 160.604 169.641 173.348 162.609 184.48C155.676 195.613 145.959 204.305 133.459 210.555C121.057 216.805 106.115 219.93 88.6348 219.93C74.9629 219.93 62.707 217.586 51.8672 212.898C41.0273 208.113 31.75 201.277 24.0352 192.391C16.418 183.504 10.6074 172.762 6.60352 160.164C2.59961 147.566 0.597656 133.455 0.597656 117.83V103.035C0.597656 87.4102 2.64844 73.2988 6.75 60.7012C10.9492 48.0059 16.9062 37.2148 24.6211 28.3281C32.4336 19.4414 41.7598 12.6055 52.5996 7.82031C63.4395 3.03516 75.5488 0.642578 88.9277 0.642578C106.701 0.642578 121.691 3.86523 133.898 10.3105C146.203 16.7559 155.725 25.6426 162.463 36.9707C169.299 48.2988 173.4 61.1895 174.768 75.6426H130.822C130.334 67.0488 128.625 59.7734 125.695 53.8164C122.766 47.7617 118.322 43.2207 112.365 40.1934C106.506 37.0684 98.6934 35.5059 88.9277 35.5059C81.6035 35.5059 75.207 36.873 69.7383 39.6074C64.2695 42.3418 59.6797 46.4922 55.9688 52.0586C52.2578 57.625 49.4746 64.6562 47.6191 73.1523C45.8613 81.5508 44.9824 91.4141 44.9824 102.742V117.83C44.9824 128.865 45.8125 138.582 47.4727 146.98C49.1328 155.281 51.6719 162.312 55.0898 168.074C58.6055 173.738 63.0977 178.035 68.5664 180.965C74.1328 183.797 80.8223 185.213 88.6348 185.213C97.8145 185.213 105.383 183.748 111.34 180.818C117.297 177.889 121.838 173.543 124.963 167.781C128.186 162.02 130.09 154.842 130.676 146.248ZM378.527 105.379V115.486C378.527 131.697 376.33 146.248 371.936 159.139C367.541 172.029 361.34 183.016 353.332 192.098C345.324 201.082 335.754 207.967 324.621 212.752C313.586 217.537 301.33 219.93 287.854 219.93C274.475 219.93 262.219 217.537 251.086 212.752C240.051 207.967 230.48 201.082 222.375 192.098C214.27 183.016 207.971 172.029 203.479 159.139C199.084 146.248 196.887 131.697 196.887 115.486V105.379C196.887 89.0703 199.084 74.5195 203.479 61.7266C207.873 48.8359 214.074 37.8496 222.082 28.7676C230.188 19.6855 239.758 12.752 250.793 7.9668C261.926 3.18164 274.182 0.789062 287.561 0.789062C301.037 0.789062 313.293 3.18164 324.328 7.9668C335.461 12.752 345.031 19.6855 353.039 28.7676C361.145 37.8496 367.395 48.8359 371.789 61.7266C376.281 74.5195 378.527 89.0703 378.527 105.379ZM334.143 115.486V105.086C334.143 93.7578 333.117 83.7969 331.066 75.2031C329.016 66.6094 325.988 59.3828 321.984 53.5234C317.98 47.6641 313.098 43.2695 307.336 40.3398C301.574 37.3125 294.982 35.7988 287.561 35.7988C280.139 35.7988 273.547 37.3125 267.785 40.3398C262.121 43.2695 257.287 47.6641 253.283 53.5234C249.377 59.3828 246.398 66.6094 244.348 75.2031C242.297 83.7969 241.271 93.7578 241.271 105.086V115.486C241.271 126.717 242.297 136.678 244.348 145.369C246.398 153.963 249.426 161.238 253.43 167.195C257.434 173.055 262.316 177.498 268.078 180.525C273.84 183.553 280.432 185.066 287.854 185.066C295.275 185.066 301.867 183.553 307.629 180.525C313.391 177.498 318.225 173.055 322.131 167.195C326.037 161.238 329.016 153.963 331.066 145.369C333.117 136.678 334.143 126.717 334.143 115.486ZM430.236 3.71875H467.443L522.229 160.311L577.014 3.71875H614.221L537.17 217H507.287L430.236 3.71875ZM410.168 3.71875H447.229L453.967 156.355V217H410.168V3.71875ZM597.229 3.71875H634.436V217H590.49V156.355L597.229 3.71875ZM693.029 3.71875H730.236L785.021 160.311L839.807 3.71875H877.014L799.963 217H770.08L693.029 3.71875ZM672.961 3.71875H710.021L716.76 156.355V217H672.961V3.71875ZM860.021 3.71875H897.229V217H853.283V156.355L860.021 3.71875ZM1110.95 105.379V115.486C1110.95 131.697 1108.75 146.248 1104.36 159.139C1099.96 172.029 1093.76 183.016 1085.75 192.098C1077.75 201.082 1068.18 207.967 1057.04 212.752C1046.01 217.537 1033.75 219.93 1020.28 219.93C1006.9 219.93 994.641 217.537 983.508 212.752C972.473 207.967 962.902 201.082 954.797 192.098C946.691 183.016 940.393 172.029 935.9 159.139C931.506 146.248 929.309 131.697 929.309 115.486V105.379C929.309 89.0703 931.506 74.5195 935.9 61.7266C940.295 48.8359 946.496 37.8496 954.504 28.7676C962.609 19.6855 972.18 12.752 983.215 7.9668C994.348 3.18164 1006.6 0.789062 1019.98 0.789062C1033.46 0.789062 1045.71 3.18164 1056.75 7.9668C1067.88 12.752 1077.45 19.6855 1085.46 28.7676C1093.57 37.8496 1099.82 48.8359 1104.21 61.7266C1108.7 74.5195 1110.95 89.0703 1110.95 105.379ZM1066.56 115.486V105.086C1066.56 93.7578 1065.54 83.7969 1063.49 75.2031C1061.44 66.6094 1058.41 59.3828 1054.41 53.5234C1050.4 47.6641 1045.52 43.2695 1039.76 40.3398C1034 37.3125 1027.4 35.7988 1019.98 35.7988C1012.56 35.7988 1005.97 37.3125 1000.21 40.3398C994.543 43.2695 989.709 47.6641 985.705 53.5234C981.799 59.3828 978.82 66.6094 976.77 75.2031C974.719 83.7969 973.693 93.7578 973.693 105.086V115.486C973.693 126.717 974.719 136.678 976.77 145.369C978.82 153.963 981.848 161.238 985.852 167.195C989.855 173.055 994.738 177.498 1000.5 180.525C1006.26 183.553 1012.85 185.066 1020.28 185.066C1027.7 185.066 1034.29 183.553 1040.05 180.525C1045.81 177.498 1050.65 173.055 1054.55 167.195C1058.46 161.238 1061.44 153.963 1063.49 145.369C1065.54 136.678 1066.56 126.717 1066.56 115.486ZM1316.17 3.71875V217H1272.23L1186.54 74.0312V217H1142.59V3.71875H1186.54L1272.38 146.834V3.71875H1316.17ZM1523.45 105.525V190.047C1520.13 194.051 1515 198.396 1508.07 203.084C1501.13 207.674 1492.2 211.629 1481.26 214.949C1470.32 218.27 1457.09 219.93 1441.56 219.93C1427.79 219.93 1415.25 217.684 1403.92 213.191C1392.59 208.602 1382.82 201.912 1374.62 193.123C1366.52 184.334 1360.27 173.592 1355.87 160.896C1351.48 148.104 1349.28 133.504 1349.28 117.098V103.768C1349.28 87.3613 1351.38 72.7617 1355.58 59.9688C1359.88 47.1758 1365.98 36.3848 1373.89 27.5957C1381.8 18.8066 1391.22 12.1172 1402.16 7.52734C1413.1 2.9375 1425.26 0.642578 1438.63 0.642578C1457.19 0.642578 1472.42 3.66992 1484.34 9.72461C1496.25 15.6816 1505.33 23.9824 1511.58 34.627C1517.93 45.1738 1521.84 57.2832 1523.3 70.9551H1480.68C1479.6 63.7285 1477.55 57.4297 1474.52 52.0586C1471.5 46.6875 1467.15 42.4883 1461.49 39.4609C1455.92 36.4336 1448.69 34.9199 1439.81 34.9199C1432.48 34.9199 1425.94 36.4336 1420.18 39.4609C1414.51 42.3906 1409.73 46.7363 1405.82 52.498C1401.92 58.2598 1398.94 65.3887 1396.89 73.8848C1394.84 82.3809 1393.81 92.2441 1393.81 103.475V117.098C1393.81 128.23 1394.88 138.094 1397.03 146.688C1399.18 155.184 1402.36 162.361 1406.55 168.221C1410.85 173.982 1416.12 178.328 1422.38 181.258C1428.62 184.188 1435.9 185.652 1444.2 185.652C1451.13 185.652 1456.9 185.066 1461.49 183.895C1466.17 182.723 1469.93 181.307 1472.77 179.646C1475.7 177.889 1477.94 176.229 1479.5 174.666V136.873H1439.37V105.525H1523.45ZM1558.9 3.71875H1638.44C1654.75 3.71875 1668.76 6.16016 1680.48 11.043C1692.3 15.9258 1701.38 23.1523 1707.73 32.7227C1714.07 42.293 1717.25 54.0605 1717.25 68.0254C1717.25 79.4512 1715.29 89.2656 1711.39 97.4688C1707.58 105.574 1702.16 112.361 1695.13 117.83C1688.2 123.201 1680.04 127.498 1670.67 130.721L1656.75 138.045H1587.61L1587.32 103.768H1638.73C1646.45 103.768 1652.84 102.4 1657.92 99.666C1663 96.9316 1666.81 93.123 1669.35 88.2402C1671.98 83.3574 1673.3 77.6934 1673.3 71.248C1673.3 64.4121 1672.03 58.5039 1669.49 53.5234C1666.96 48.543 1663.1 44.7344 1657.92 42.0977C1652.75 39.4609 1646.25 38.1426 1638.44 38.1426H1602.84V217H1558.9V3.71875ZM1678.14 217L1629.5 121.932L1675.94 121.639L1725.16 214.949V217H1678.14ZM1926.28 105.379V115.486C1926.28 131.697 1924.08 146.248 1919.69 159.139C1915.29 172.029 1909.09 183.016 1901.09 192.098C1893.08 201.082 1883.51 207.967 1872.38 212.752C1861.34 217.537 1849.08 219.93 1835.61 219.93C1822.23 219.93 1809.97 217.537 1798.84 212.752C1787.8 207.967 1778.23 201.082 1770.13 192.098C1762.02 183.016 1755.72 172.029 1751.23 159.139C1746.84 146.248 1744.64 131.697 1744.64 115.486V105.379C1744.64 89.0703 1746.84 74.5195 1751.23 61.7266C1755.63 48.8359 1761.83 37.8496 1769.84 28.7676C1777.94 19.6855 1787.51 12.752 1798.55 7.9668C1809.68 3.18164 1821.94 0.789062 1835.31 0.789062C1848.79 0.789062 1861.05 3.18164 1872.08 7.9668C1883.21 12.752 1892.79 19.6855 1900.79 28.7676C1908.9 37.8496 1915.15 48.8359 1919.54 61.7266C1924.04 74.5195 1926.28 89.0703 1926.28 105.379ZM1881.9 115.486V105.086C1881.9 93.7578 1880.87 83.7969 1878.82 75.2031C1876.77 66.6094 1873.74 59.3828 1869.74 53.5234C1865.73 47.6641 1860.85 43.2695 1855.09 40.3398C1849.33 37.3125 1842.74 35.7988 1835.31 35.7988C1827.89 35.7988 1821.3 37.3125 1815.54 40.3398C1809.88 43.2695 1805.04 47.6641 1801.04 53.5234C1797.13 59.3828 1794.15 66.6094 1792.1 75.2031C1790.05 83.7969 1789.03 93.7578 1789.03 105.086V115.486C1789.03 126.717 1790.05 136.678 1792.1 145.369C1794.15 153.963 1797.18 161.238 1801.18 167.195C1805.19 173.055 1810.07 177.498 1815.83 180.525C1821.59 183.553 1828.19 185.066 1835.61 185.066C1843.03 185.066 1849.62 183.553 1855.38 180.525C1861.14 177.498 1865.98 173.055 1869.88 167.195C1873.79 161.238 1876.77 153.963 1878.82 145.369C1880.87 136.678 1881.9 126.717 1881.9 115.486ZM2075.7 3.71875H2119.49V144.637C2119.49 161.043 2115.98 174.861 2108.95 186.092C2102.01 197.322 2092.39 205.77 2080.09 211.434C2067.88 217.098 2053.82 219.93 2037.9 219.93C2021.98 219.93 2007.82 217.098 1995.42 211.434C1983.12 205.77 1973.45 197.322 1966.42 186.092C1959.48 174.861 1956.02 161.043 1956.02 144.637V3.71875H1999.96V144.637C1999.96 154.207 2001.48 162.02 2004.5 168.074C2007.53 174.129 2011.88 178.572 2017.54 181.404C2023.3 184.236 2030.09 185.652 2037.9 185.652C2045.91 185.652 2052.7 184.236 2058.26 181.404C2063.93 178.572 2068.22 174.129 2071.15 168.074C2074.18 162.02 2075.7 154.207 2075.7 144.637V3.71875ZM2329.26 3.71875V217H2285.31L2199.62 74.0312V217H2155.68V3.71875H2199.62L2285.46 146.834V3.71875H2329.26ZM2432.97 217H2386.54L2386.83 182.723H2432.97C2444.49 182.723 2454.21 180.135 2462.12 174.959C2470.03 169.686 2475.99 162.02 2479.99 151.961C2484.09 141.902 2486.14 129.744 2486.14 115.486V105.086C2486.14 94.1484 2484.97 84.5293 2482.63 76.2285C2480.38 67.9277 2477.01 60.9453 2472.52 55.2812C2468.03 49.6172 2462.51 45.3691 2455.97 42.5371C2449.43 39.6074 2441.91 38.1426 2433.41 38.1426H2385.66V3.71875H2433.41C2447.67 3.71875 2460.71 6.16016 2472.52 11.043C2484.44 15.8281 2494.74 22.7129 2503.43 31.6973C2512.12 40.6816 2518.81 51.4238 2523.5 63.9238C2528.28 76.3262 2530.68 90.1445 2530.68 105.379V115.486C2530.68 130.623 2528.28 144.441 2523.5 156.941C2518.81 169.441 2512.12 180.184 2503.43 189.168C2494.84 198.055 2484.53 204.939 2472.52 209.822C2460.61 214.607 2447.42 217 2432.97 217ZM2411.44 3.71875V217H2367.49V3.71875H2411.44Z" fill="#059669"/>
</svg>
