<svg width="512" height="512" viewBox="0 0 512 512" fill="none" xmlns="http://www.w3.org/2000/svg">
<path d="M59.4 238.829C59.4 144.151 136.151 67.4 230.829 67.4V67.4C235.562 67.4 239.4 71.2376 239.4 75.9714V235.238C239.4 241.955 233.955 247.4 227.238 247.4H67.9715C63.2376 247.4 59.4 243.562 59.4 238.829V238.829Z" fill="white"/>
<path d="M230.829 452.6C136.151 452.6 59.4 375.849 59.4 281.171V281.171C59.4 276.438 63.2376 272.6 67.9715 272.6H227.238C233.955 272.6 239.4 278.045 239.4 284.762V444.029C239.4 448.762 235.562 452.6 230.829 452.6V452.6Z" fill="white"/>
<path d="M273.171 67.4C367.849 67.4 444.6 144.151 444.6 238.829V238.829C444.6 243.562 440.762 247.4 436.029 247.4L276.762 247.4C270.045 247.4 264.6 241.955 264.6 235.238V75.9714C264.6 71.2376 268.438 67.4 273.171 67.4V67.4Z" fill="white"/>
<path d="M264.6 444.029C264.6 349.351 341.351 272.6 436.029 272.6V272.6C440.762 272.6 444.6 276.438 444.6 281.171V440.438C444.6 447.155 439.155 452.6 432.438 452.6H273.171C268.438 452.6 264.6 448.762 264.6 444.029V444.029Z" fill="white"/>
</svg>
