<svg width="122" height="140" viewBox="0 0 122 140" fill="none" xmlns="http://www.w3.org/2000/svg">
<g clip-path="url(#clip0_8085_3443)">
<path fill-rule="evenodd" clip-rule="evenodd" d="M77 98C78.2903 98 79.3333 99.0453 79.3333 100.333C79.3333 101.621 78.2903 102.667 77 102.667H44.3333C43.0453 102.667 42 101.621 42 100.333C42 99.0453 43.0453 98 44.3333 98H77ZM91 88.6667H44.3333C43.0453 88.6667 42 87.6213 42 86.3333C42 85.0453 43.0453 84 44.3333 84H91C92.2903 84 93.3333 85.0453 93.3333 86.3333C93.3333 87.6213 92.2903 88.6667 91 88.6667ZM95.6667 74.6667H44.3333C43.0453 74.6667 42 73.6213 42 72.3333C42 71.0453 43.0453 70 44.3333 70H95.6667C96.957 70 98 71.0453 98 72.3333C98 73.6213 96.957 74.6667 95.6667 74.6667ZM42 58.3333C42 57.0453 43.0453 56 44.3333 56H86.3333C87.6237 56 88.6667 57.0453 88.6667 58.3333C88.6667 59.6213 87.6237 60.6667 86.3333 60.6667H44.3333C43.0453 60.6667 42 59.6213 42 58.3333ZM42 44.3333C42 43.0453 43.0453 42 44.3333 42H91C92.2903 42 93.3333 43.0453 93.3333 44.3333C93.3333 45.6213 92.2903 46.6667 91 46.6667H44.3333C43.0453 46.6667 42 45.6213 42 44.3333ZM32.6667 100.333C32.6667 101.621 31.6213 102.667 30.3333 102.667H25.6667C24.3787 102.667 23.3333 101.621 23.3333 100.333C23.3333 99.0453 24.3787 98 25.6667 98H30.3333C31.6213 98 32.6667 99.0453 32.6667 100.333ZM32.6667 86.3333C32.6667 87.6213 31.6213 88.6667 30.3333 88.6667H25.6667C24.3787 88.6667 23.3333 87.6213 23.3333 86.3333C23.3333 85.0453 24.3787 84 25.6667 84H30.3333C31.6213 84 32.6667 85.0453 32.6667 86.3333ZM32.6667 72.3333C32.6667 73.6213 31.6213 74.6667 30.3333 74.6667H25.6667C24.3787 74.6667 23.3333 73.6213 23.3333 72.3333C23.3333 71.0453 24.3787 70 25.6667 70H30.3333C31.6213 70 32.6667 71.0453 32.6667 72.3333ZM32.6667 58.3333C32.6667 59.6213 31.6213 60.6667 30.3333 60.6667H25.6667C24.3787 60.6667 23.3333 59.6213 23.3333 58.3333C23.3333 57.0453 24.3787 56 25.6667 56H30.3333C31.6213 56 32.6667 57.0453 32.6667 58.3333ZM32.6667 44.3333C32.6667 45.6213 31.6213 46.6667 30.3333 46.6667H25.6667C24.3787 46.6667 23.3333 45.6213 23.3333 44.3333C23.3333 43.0453 24.3787 42 25.6667 42H30.3333C31.6213 42 32.6667 43.0453 32.6667 44.3333ZM32.6667 11.6667C32.6667 10.3787 33.712 9.33333 35 9.33333H39.6667C40.9547 9.33333 42 10.3787 42 11.6667C42 12.9547 40.9547 14 39.6667 14H35C33.712 14 32.6667 12.9547 32.6667 11.6667ZM56 11.6667C56 10.3787 57.0453 9.33333 58.3333 9.33333H63C64.2903 9.33333 65.3333 10.3787 65.3333 11.6667C65.3333 12.9547 64.2903 14 63 14H58.3333C57.0453 14 56 12.9547 56 11.6667ZM79.3333 11.6667C79.3333 10.3787 80.3763 9.33333 81.6667 9.33333H86.3333C87.6237 9.33333 88.6667 10.3787 88.6667 11.6667C88.6667 12.9547 87.6237 14 86.3333 14H81.6667C80.3763 14 79.3333 12.9547 79.3333 11.6667ZM25.6667 18.6667C26.9523 18.6667 28 19.7143 28 21C28 22.2857 26.9523 23.3333 25.6667 23.3333C24.381 23.3333 23.3333 22.2857 23.3333 21C23.3333 19.7143 24.381 18.6667 25.6667 18.6667ZM18.6667 21C18.6667 24.8593 21.8073 28 25.6667 28C29.526 28 32.6667 24.8593 32.6667 21C32.6667 17.962 30.7113 15.3977 28 14.4293V2.33333C28 1.04533 26.9547 0 25.6667 0C24.3787 0 23.3333 1.04533 23.3333 2.33333V14.4293C20.622 15.3977 18.6667 17.962 18.6667 21ZM95.6667 18.6667C96.9547 18.6667 98 19.7143 98 21C98 22.2857 96.9547 23.3333 95.6667 23.3333C94.3787 23.3333 93.3333 22.2857 93.3333 21C93.3333 19.7143 94.3787 18.6667 95.6667 18.6667ZM88.6667 21C88.6667 24.8593 91.8073 28 95.6667 28C99.526 28 102.667 24.8593 102.667 21C102.667 17.962 100.709 15.3977 98 14.4293V2.33333C98 1.04533 96.957 0 95.6667 0C94.3763 0 93.3333 1.04533 93.3333 2.33333V14.4293C90.6243 15.3977 88.6667 17.962 88.6667 21ZM72.3333 18.6667C73.6213 18.6667 74.6667 19.7143 74.6667 21C74.6667 22.2857 73.6213 23.3333 72.3333 23.3333C71.0453 23.3333 70 22.2857 70 21C70 19.7143 71.0453 18.6667 72.3333 18.6667ZM65.3333 21C65.3333 24.8593 68.474 28 72.3333 28C76.1927 28 79.3333 24.8593 79.3333 21C79.3333 17.962 77.3757 15.3977 74.6667 14.4293V2.33333C74.6667 1.04533 73.6237 0 72.3333 0C71.043 0 70 1.04533 70 2.33333V14.4293C67.291 15.3977 65.3333 17.962 65.3333 21ZM49 18.6667C50.2857 18.6667 51.3333 19.7143 51.3333 21C51.3333 22.2857 50.2857 23.3333 49 23.3333C47.7143 23.3333 46.6667 22.2857 46.6667 21C46.6667 19.7143 47.7143 18.6667 49 18.6667ZM42 21C42 24.8593 45.1407 28 49 28C52.8593 28 56 24.8593 56 21C56 17.962 54.0447 15.3977 51.3333 14.4293V2.33333C51.3333 1.04533 50.288 0 49 0C47.712 0 46.6667 1.04533 46.6667 2.33333V14.4293C43.9553 15.3977 42 17.962 42 21ZM109.667 135.333H11.6667C9.04867 135.333 6.33267 133.198 5.21033 130.667H116.123C115.001 133.198 112.285 135.333 109.667 135.333ZM4.66667 126H116.667V121.333H4.66667V126ZM109.667 9.33333H105C103.71 9.33333 102.667 10.3787 102.667 11.6667C102.667 12.9547 103.71 14 105 14H109.667C113.069 14 116.667 17.598 116.667 21V116.667H4.66667V21C4.66667 17.598 8.26467 14 11.6667 14H16.3333C17.6213 14 18.6667 12.9547 18.6667 11.6667C18.6667 10.3787 17.6213 9.33333 16.3333 9.33333H11.6667C5.67 9.33333 0 15.0033 0 21V128.333C0 134.33 5.67 140 11.6667 140H109.667C115.663 140 121.333 134.33 121.333 128.333V21C121.333 15.0033 115.663 9.33333 109.667 9.33333Z" fill="#737373"/>
</g>
<defs>
<clipPath id="clip0_8085_3443">
<rect width="121.333" height="140" fill="white"/>
</clipPath>
</defs>
</svg>
